<svg width="25" height="19" viewBox="0 0 25 19" fill="none" xmlns="http://www.w3.org/2000/svg">
<path fill-rule="evenodd" clip-rule="evenodd" d="M0.25 2.3C0.25 1.30589 1.01751 0.5 1.96429 0.5H22.5357C23.4825 0.5 24.25 1.30589 24.25 2.3V16.7C24.25 17.6941 23.4825 18.5 22.5357 18.5H1.96429C1.01751 18.5 0.25 17.6941 0.25 16.7V2.3ZM22.5357 2.3H1.96429V16.7H22.5357V2.3Z" fill="white"/>
<path fill-rule="evenodd" clip-rule="evenodd" d="M15.6786 14C15.6786 13.5029 16.0623 13.1 16.5357 13.1H19.9643C20.4377 13.1 20.8214 13.5029 20.8214 14C20.8214 14.4971 20.4377 14.9 19.9643 14.9H16.5357C16.0623 14.9 15.6786 14.4971 15.6786 14Z" fill="white"/>
<path fill-rule="evenodd" clip-rule="evenodd" d="M10.5357 14C10.5357 13.5029 10.9195 13.1 11.3929 13.1H13.1071C13.5805 13.1 13.9643 13.5029 13.9643 14C13.9643 14.4971 13.5805 14.9 13.1071 14.9H11.3929C10.9195 14.9 10.5357 14.4971 10.5357 14Z" fill="white"/>
<path fill-rule="evenodd" clip-rule="evenodd" d="M0.25 6.00195C0.25 5.5049 0.633756 5.10195 1.10714 5.10195H23.3929C23.8662 5.10195 24.25 5.5049 24.25 6.00195C24.25 6.49901 23.8662 6.90195 23.3929 6.90195H1.10714C0.633756 6.90195 0.25 6.49901 0.25 6.00195Z" fill="white"/>
</svg>
